<svg width="32" height="32" viewBox="0 0 32 32" fill="none" xmlns="http://www.w3.org/2000/svg">
<mask id="path-1-outside-1_312_117" maskUnits="userSpaceOnUse" x="3.22237" y="-0.329834" width="26" height="33" fill="black">
<rect fill="white" x="3.22237" y="-0.329834" width="26" height="33"/>
<path fill-rule="evenodd" clip-rule="evenodd" d="M18.3689 0.670166L19.8844 1.26946C19.8844 1.26946 18.2693 4.53713 16.7741 7.93282H27.7776V31.4881H4.22237V7.93282H15.0217C16.8171 3.64183 18.3689 0.670166 18.3689 0.670166ZM14.5898 8.97972H5.26927V30.4412H26.7307V8.97972H16.3191C15.908 9.93893 15.5208 10.8826 15.1969 11.7394C13.6109 15.9345 12.483 20.3058 12.483 20.3058C12.483 20.3058 14.0074 17.6266 16.0428 15.6524C18.2632 13.5725 19.9549 13.5725 20.3074 13.5725C20.6598 13.5725 21.6467 13.5725 22.2106 14.3834C22.7745 15.1942 22.5983 16.5338 22.563 16.71C22.5603 16.7236 22.5574 16.742 22.5538 16.7648C22.5102 17.0386 22.365 17.9521 21.259 18.8957C20.0607 19.918 17.664 21.0461 17.664 21.0461C17.7759 22.0111 18.2632 23.0202 18.4394 23.3022C18.6156 23.5842 19.3558 24.5008 20.3074 24.4303C21.259 24.3598 22.4573 23.126 22.4573 23.126L23.1974 23.69C22.7298 24.7187 22.3971 25.2273 21.6819 26.0167C21.6819 26.0167 20.5541 27.039 19.3205 27.039C17.8755 26.9685 16.6067 25.0296 16.6067 25.0296C16.6067 25.0296 15.1969 23.126 15.1969 21.7511C15.1969 21.0461 16.0428 20.623 16.0428 20.623C16.0428 20.623 18.6861 19.4244 19.25 18.8957C19.814 18.3669 19.8844 17.9791 19.8844 17.6266C19.8844 17.6054 19.8848 17.5815 19.8852 17.5551C19.8918 17.1427 19.9077 16.146 18.6156 16.146C16.8181 16.146 15.1969 18.6136 15.1969 18.6136C13.7307 20.744 12.8438 22.3301 11.038 26.5102L9.06429 25.6994C9.06429 25.6994 10.5969 19.8475 13.047 13.0085C13.5529 11.5962 14.0768 10.2411 14.5898 8.97972Z"/>
</mask>
<path fill-rule="evenodd" clip-rule="evenodd" d="M18.3689 0.670166L19.8844 1.26946C19.8844 1.26946 18.2693 4.53713 16.7741 7.93282H27.7776V31.4881H4.22237V7.93282H15.0217C16.8171 3.64183 18.3689 0.670166 18.3689 0.670166ZM14.5898 8.97972H5.26927V30.4412H26.7307V8.97972H16.3191C15.908 9.93893 15.5208 10.8826 15.1969 11.7394C13.6109 15.9345 12.483 20.3058 12.483 20.3058C12.483 20.3058 14.0074 17.6266 16.0428 15.6524C18.2632 13.5725 19.9549 13.5725 20.3074 13.5725C20.6598 13.5725 21.6467 13.5725 22.2106 14.3834C22.7745 15.1942 22.5983 16.5338 22.563 16.71C22.5603 16.7236 22.5574 16.742 22.5538 16.7648C22.5102 17.0386 22.365 17.9521 21.259 18.8957C20.0607 19.918 17.664 21.0461 17.664 21.0461C17.7759 22.0111 18.2632 23.0202 18.4394 23.3022C18.6156 23.5842 19.3558 24.5008 20.3074 24.4303C21.259 24.3598 22.4573 23.126 22.4573 23.126L23.1974 23.69C22.7298 24.7187 22.3971 25.2273 21.6819 26.0167C21.6819 26.0167 20.5541 27.039 19.3205 27.039C17.8755 26.9685 16.6067 25.0296 16.6067 25.0296C16.6067 25.0296 15.1969 23.126 15.1969 21.7511C15.1969 21.0461 16.0428 20.623 16.0428 20.623C16.0428 20.623 18.6861 19.4244 19.25 18.8957C19.814 18.3669 19.8844 17.9791 19.8844 17.6266C19.8844 17.6054 19.8848 17.5815 19.8852 17.5551C19.8918 17.1427 19.9077 16.146 18.6156 16.146C16.8181 16.146 15.1969 18.6136 15.1969 18.6136C13.7307 20.744 12.8438 22.3301 11.038 26.5102L9.06429 25.6994C9.06429 25.6994 10.5969 19.8475 13.047 13.0085C13.5529 11.5962 14.0768 10.2411 14.5898 8.97972Z" fill="#E7E6E5"/>
<path d="M19.8844 1.26946L20.3327 1.49101L20.5733 1.00418L20.0683 0.80449L19.8844 1.26946ZM18.3689 0.670166L18.5528 0.205199L18.1341 0.0396438L17.9257 0.438717L18.3689 0.670166ZM16.7741 7.93282L16.3165 7.73133L16.0076 8.43282H16.7741V7.93282ZM27.7776 7.93282H28.2776V7.43282H27.7776V7.93282ZM27.7776 31.4881V31.9881H28.2776V31.4881H27.7776ZM4.22237 31.4881H3.72237V31.9881H4.22237V31.4881ZM4.22237 7.93282V7.43282H3.72237V7.93282H4.22237ZM15.0217 7.93282V8.43282H15.3544L15.4829 8.12582L15.0217 7.93282ZM14.5898 8.97972L15.0529 9.16806L15.3328 8.47972H14.5898V8.97972ZM5.26927 8.97972V8.47972H4.76927V8.97972H5.26927ZM5.26927 30.4412H4.76927V30.9412H5.26927V30.4412ZM26.7307 30.4412V30.9412H27.2307V30.4412H26.7307ZM26.7307 8.97972H27.2307V8.47972H26.7307V8.97972ZM16.3191 8.97972V8.47972H15.9894L15.8595 8.78277L16.3191 8.97972ZM15.1969 11.7394L15.6646 11.9162L15.6646 11.9162L15.1969 11.7394ZM12.483 20.3058L11.9989 20.1808L12.9176 20.553L12.483 20.3058ZM16.0428 15.6524L15.7009 15.2875L15.6946 15.2935L16.0428 15.6524ZM22.2106 14.3834L22.6211 14.0979L22.6211 14.0979L22.2106 14.3834ZM22.563 16.71L23.0533 16.8081L23.0533 16.808L22.563 16.71ZM22.5538 16.7648L22.06 16.6863L22.06 16.6863L22.5538 16.7648ZM21.259 18.8957L21.5835 19.276L21.5835 19.276L21.259 18.8957ZM17.664 21.0461L17.4511 20.5937L17.126 20.7467L17.1673 21.1036L17.664 21.0461ZM18.4394 23.3022L18.8634 23.0373L18.8634 23.0373L18.4394 23.3022ZM20.3074 24.4303L20.3443 24.9289L20.3443 24.9289L20.3074 24.4303ZM22.4573 23.126L22.7604 22.7283L22.4076 22.4594L22.0986 22.7776L22.4573 23.126ZM23.1974 23.69L23.6526 23.8969L23.8176 23.534L23.5005 23.2923L23.1974 23.69ZM21.6819 26.0167L22.0177 26.3871L22.0359 26.3706L22.0525 26.3524L21.6819 26.0167ZM19.3205 27.039L19.2962 27.5384L19.3083 27.539H19.3205V27.039ZM16.6067 25.0296L17.0251 24.7558L17.0171 24.7437L17.0085 24.732L16.6067 25.0296ZM16.0428 20.623L15.8363 20.1677L15.8276 20.1716L15.8191 20.1758L16.0428 20.623ZM19.8852 17.5551L19.3853 17.5472L19.3853 17.5472L19.8852 17.5551ZM15.1969 18.6136L15.6089 18.8972L15.6148 18.8882L15.1969 18.6136ZM11.038 26.5102L10.848 26.9727L11.3023 27.1593L11.497 26.7085L11.038 26.5102ZM9.06429 25.6994L8.58061 25.5727L8.46982 25.9957L8.8743 26.1619L9.06429 25.6994ZM13.047 13.0085L13.5177 13.1771L13.5177 13.1771L13.047 13.0085ZM20.0683 0.80449L18.5528 0.205199L18.1851 1.13513L19.7006 1.73442L20.0683 0.80449ZM17.2317 8.13432C17.9766 6.44252 18.752 4.78143 19.3415 3.54259C19.6361 2.92337 19.8841 2.41008 20.0584 2.05176C20.1455 1.8726 20.2142 1.73221 20.261 1.6367C20.2844 1.58895 20.3024 1.55242 20.3145 1.52788C20.3205 1.51561 20.3251 1.50634 20.3282 1.50017C20.3297 1.49708 20.3308 1.49476 20.3316 1.49323C20.332 1.49247 20.3322 1.4919 20.3324 1.49153C20.3325 1.49134 20.3326 1.4912 20.3326 1.49112C20.3326 1.49108 20.3327 1.49105 20.3327 1.49103C20.3327 1.49101 20.3327 1.49101 19.8844 1.26946C19.4362 1.04791 19.4362 1.04793 19.4362 1.04796C19.4362 1.04799 19.4361 1.04804 19.4361 1.04809C19.4361 1.04821 19.436 1.04837 19.4359 1.04858C19.4357 1.04901 19.4354 1.04963 19.435 1.05045C19.4341 1.05208 19.4329 1.05451 19.4314 1.0577C19.4282 1.0641 19.4235 1.07359 19.4174 1.08608C19.4051 1.11107 19.3869 1.14806 19.3632 1.19629C19.3159 1.29275 19.2467 1.43417 19.1591 1.61442C18.9838 1.9749 18.7345 2.49076 18.4385 3.11292C17.8466 4.35683 17.0668 6.02743 16.3165 7.73133L17.2317 8.13432ZM27.7776 7.43282H16.7741V8.43282H27.7776V7.43282ZM28.2776 31.4881V7.93282H27.2776V31.4881H28.2776ZM4.22237 31.9881H27.7776V30.9881H4.22237V31.9881ZM3.72237 7.93282V31.4881H4.72237V7.93282H3.72237ZM15.0217 7.43282H4.22237V8.43282H15.0217V7.43282ZM18.3689 0.670166C17.9257 0.438717 17.9257 0.438754 17.9257 0.438802C17.9256 0.438833 17.9256 0.438893 17.9256 0.438955C17.9255 0.43908 17.9254 0.439249 17.9253 0.439465C17.9251 0.439895 17.9248 0.440506 17.9244 0.441297C17.9235 0.442879 17.9223 0.445181 17.9208 0.448196C17.9176 0.454227 17.913 0.463113 17.907 0.474803C17.8949 0.498181 17.877 0.532777 17.8538 0.578186C17.8072 0.669003 17.739 0.803079 17.6515 0.977185C17.4767 1.32538 17.2252 1.83377 16.9176 2.47649C16.3023 3.76175 15.4619 5.58516 14.5604 7.73983L15.4829 8.12582C16.3768 5.98949 17.21 4.18157 17.8196 2.90826C18.1243 2.27169 18.373 1.76897 18.5452 1.42589C18.6314 1.25435 18.6984 1.12274 18.7437 1.03428C18.7664 0.990057 18.7836 0.956618 18.7951 0.934371C18.8009 0.923248 18.8052 0.914923 18.808 0.909447C18.8095 0.906709 18.8105 0.904683 18.8112 0.903376C18.8115 0.902722 18.8118 0.902248 18.8119 0.901954C18.812 0.901807 18.8121 0.901706 18.8121 0.901649C18.8121 0.901621 18.8121 0.901612 18.8121 0.901598C18.8121 0.901601 18.8121 0.901615 18.3689 0.670166ZM14.5898 8.47972H5.26927V9.47972H14.5898V8.47972ZM4.76927 8.97972V30.4412H5.76927V8.97972H4.76927ZM5.26927 30.9412H26.7307V29.9412H5.26927V30.9412ZM27.2307 30.4412V8.97972H26.2307V30.4412H27.2307ZM26.7307 8.47972H16.3191V9.47972H26.7307V8.47972ZM15.6646 11.9162C15.9851 11.0683 16.3693 10.1318 16.7787 9.17667L15.8595 8.78277C15.4467 9.74606 15.0565 10.6968 14.7292 11.5626L15.6646 11.9162ZM12.483 20.3058C12.9672 20.4307 12.9672 20.4307 12.9672 20.4307C12.9672 20.4307 12.9672 20.4306 12.9672 20.4306C12.9672 20.4305 12.9673 20.4303 12.9673 20.4301C12.9675 20.4296 12.9676 20.4289 12.9679 20.4279C12.9684 20.4259 12.9692 20.4229 12.9703 20.4188C12.9724 20.4107 12.9755 20.3985 12.9798 20.3822C12.9883 20.3498 13.001 20.3014 13.0178 20.2381C13.0514 20.1117 13.1013 19.9258 13.1662 19.6896C13.2959 19.217 13.4855 18.5429 13.7245 17.7381C14.2028 16.1273 14.8774 13.9983 15.6646 11.9162L14.7292 11.5626C13.9303 13.6756 13.248 15.8297 12.7659 17.4534C12.5247 18.2658 12.3332 18.9467 12.2019 19.4248C12.1362 19.6639 12.0856 19.8524 12.0514 19.9813C12.0342 20.0458 12.0212 20.0954 12.0124 20.129C12.008 20.1459 12.0046 20.1587 12.0024 20.1673C12.0013 20.1717 12.0004 20.175 11.9998 20.1773C11.9995 20.1784 11.9993 20.1792 11.9992 20.1798C11.9991 20.1801 11.999 20.1804 11.999 20.1805C11.9989 20.1806 11.9989 20.1807 11.9989 20.1807C11.9989 20.1808 11.9989 20.1808 12.483 20.3058ZM15.6946 15.2935C14.6444 16.3122 13.7335 17.5046 13.0887 18.4345C12.7653 18.901 12.5064 19.305 12.328 19.593C12.2387 19.737 12.1695 19.8523 12.1223 19.9321C12.0986 19.9719 12.0805 20.003 12.0681 20.0243C12.062 20.035 12.0572 20.0433 12.0539 20.049C12.0523 20.0518 12.051 20.0541 12.0501 20.0557C12.0496 20.0565 12.0493 20.0571 12.049 20.0576C12.0488 20.0578 12.0487 20.058 12.0486 20.0582C12.0486 20.0582 12.0486 20.0583 12.0485 20.0584C12.0485 20.0584 12.0485 20.0585 12.483 20.3058C12.9176 20.553 12.9176 20.5531 12.9176 20.5531C12.9176 20.5531 12.9176 20.5531 12.9176 20.5531C12.9176 20.5531 12.9176 20.5531 12.9177 20.553C12.9178 20.5528 12.9179 20.5525 12.9182 20.552C12.9188 20.551 12.9197 20.5493 12.921 20.547C12.9236 20.5425 12.9277 20.5355 12.9332 20.5261C12.9441 20.5072 12.9607 20.4787 12.9828 20.4415C13.0268 20.3671 13.0926 20.2576 13.1781 20.1196C13.3491 19.8436 13.5985 19.4543 13.9105 19.0043C14.5368 18.1011 15.4057 16.9668 16.3909 16.0114L15.6946 15.2935ZM20.3074 13.0725C19.8584 13.0725 18.0341 13.1021 15.7009 15.2875L16.3846 16.0174C18.4923 14.043 20.0514 14.0725 20.3074 14.0725V13.0725ZM22.6211 14.0979C21.8927 13.0506 20.6371 13.0725 20.3074 13.0725V14.0725C20.6825 14.0725 21.4006 14.0945 21.8001 14.6688L22.6211 14.0979ZM23.0533 16.808C23.0786 16.6817 23.135 16.2617 23.1109 15.7606C23.0873 15.2686 22.9829 14.6181 22.6211 14.0979L21.8001 14.6688C22.0022 14.9594 22.0917 15.3841 22.1121 15.8086C22.1321 16.2241 22.0827 16.5621 22.0727 16.612L23.0533 16.808ZM23.0476 16.8434C23.0495 16.8314 23.0508 16.8231 23.052 16.8161C23.0532 16.8089 23.0535 16.8071 23.0533 16.8081L22.0728 16.612C22.0676 16.6376 22.0629 16.6677 22.06 16.6863L23.0476 16.8434ZM21.5835 19.276C22.814 18.2263 22.9938 17.1815 23.0476 16.8434L22.06 16.6863C22.0267 16.8956 21.916 17.6779 20.9345 18.5153L21.5835 19.276ZM17.664 21.0461C17.877 21.4985 17.877 21.4984 17.8771 21.4984C17.8771 21.4984 17.8771 21.4984 17.8772 21.4983C17.8773 21.4983 17.8775 21.4982 17.8777 21.4981C17.8781 21.4979 17.8786 21.4977 17.8793 21.4974C17.8806 21.4967 17.8825 21.4958 17.885 21.4947C17.89 21.4923 17.8972 21.4889 17.9065 21.4844C17.9251 21.4755 17.9523 21.4625 17.9871 21.4457C18.0568 21.412 18.157 21.363 18.2809 21.301C18.5284 21.1772 18.871 21.0014 19.2521 20.7929C20.0047 20.3811 20.9424 19.823 21.5835 19.276L20.9345 18.5153C20.3772 18.9907 19.5175 19.5078 18.7721 19.9156C18.4043 20.1169 18.0729 20.2869 17.8336 20.4066C17.714 20.4664 17.6177 20.5135 17.5516 20.5455C17.5185 20.5615 17.493 20.5737 17.476 20.5818C17.4675 20.5859 17.4611 20.589 17.4569 20.5909C17.4548 20.5919 17.4532 20.5927 17.4523 20.5931C17.4518 20.5933 17.4514 20.5935 17.4512 20.5936C17.4511 20.5936 17.4511 20.5937 17.4511 20.5937C17.451 20.5937 17.451 20.5937 17.451 20.5937C17.4511 20.5937 17.4511 20.5937 17.664 21.0461ZM18.8634 23.0373C18.7141 22.7982 18.2617 21.8597 18.1607 20.9885L17.1673 21.1036C17.2901 22.1626 17.8123 23.2422 18.0154 23.5672L18.8634 23.0373ZM20.2704 23.9317C19.9681 23.9541 19.6665 23.8209 19.3911 23.605C19.1174 23.3904 18.9256 23.1367 18.8634 23.0373L18.0154 23.5672C18.1295 23.7498 18.3958 24.0954 18.7741 24.3919C19.1507 24.6872 19.695 24.977 20.3443 24.9289L20.2704 23.9317ZM22.4573 23.126C22.0986 22.7776 22.0987 22.7775 22.0987 22.7775C22.0988 22.7775 22.0988 22.7774 22.0988 22.7774C22.0989 22.7773 22.0989 22.7773 22.0989 22.7773C22.0989 22.7773 22.0989 22.7773 22.0988 22.7774C22.0985 22.7777 22.098 22.7782 22.0972 22.779C22.0956 22.7806 22.0929 22.7834 22.0892 22.7872C22.0817 22.7947 22.0699 22.8064 22.0543 22.8217C22.023 22.8523 21.9763 22.8971 21.9171 22.9515C21.7981 23.0608 21.6308 23.2065 21.4371 23.3532C21.023 23.6672 20.5879 23.9081 20.2704 23.9317L20.3443 24.9289C20.9784 24.8819 21.6184 24.4707 22.0412 24.1501C22.2662 23.9796 22.4579 23.8125 22.5933 23.6882C22.6613 23.6258 22.7157 23.5737 22.7536 23.5365C22.7726 23.5179 22.7875 23.5031 22.7981 23.4925C22.8033 23.4872 22.8075 23.483 22.8105 23.48C22.812 23.4784 22.8132 23.4772 22.8141 23.4762C22.8146 23.4758 22.8149 23.4754 22.8153 23.475C22.8154 23.4749 22.8156 23.4747 22.8157 23.4746C22.8157 23.4746 22.8158 23.4745 22.8158 23.4744C22.8159 23.4744 22.816 23.4743 22.4573 23.126ZM23.5005 23.2923L22.7604 22.7283L22.1542 23.5236L22.8944 24.0877L23.5005 23.2923ZM22.0525 26.3524C22.804 25.5229 23.1646 24.9704 23.6526 23.8969L22.7423 23.4831C22.2949 24.4671 21.9902 24.9317 21.3114 25.6809L22.0525 26.3524ZM19.3205 27.539C20.066 27.539 20.7476 27.234 21.2166 26.9592C21.4562 26.8188 21.653 26.6787 21.7906 26.5732C21.8597 26.5203 21.9144 26.4756 21.9528 26.4433C21.972 26.4271 21.9872 26.414 21.9981 26.4045C22.0036 26.3997 22.0079 26.3959 22.0112 26.3929C22.0129 26.3915 22.0142 26.3903 22.0153 26.3893C22.0158 26.3888 22.0163 26.3884 22.0167 26.388C22.0169 26.3878 22.0171 26.3877 22.0173 26.3875C22.0174 26.3874 22.0175 26.3873 22.0175 26.3873C22.0176 26.3872 22.0177 26.3871 21.6819 26.0167C21.3461 25.6462 21.3462 25.6461 21.3463 25.646C21.3463 25.646 21.3464 25.6459 21.3465 25.6459C21.3466 25.6458 21.3466 25.6457 21.3467 25.6457C21.3468 25.6455 21.3469 25.6455 21.3469 25.6455C21.3469 25.6455 21.3466 25.6457 21.3461 25.6462C21.345 25.6472 21.3429 25.649 21.3398 25.6518C21.3336 25.6572 21.3233 25.6661 21.3093 25.6779C21.2812 25.7015 21.2382 25.7367 21.1822 25.7796C21.0698 25.8658 20.9075 25.9813 20.711 26.0964C20.3077 26.3328 19.8086 26.539 19.3205 26.539V27.539ZM16.6067 25.0296C16.1883 25.3034 16.1884 25.3035 16.1884 25.3036C16.1885 25.3036 16.1886 25.3038 16.1886 25.3039C16.1888 25.3041 16.1889 25.3043 16.1891 25.3046C16.1894 25.3051 16.1898 25.3057 16.1903 25.3064C16.1913 25.3079 16.1926 25.3099 16.1942 25.3123C16.1974 25.3171 16.2019 25.3238 16.2075 25.3321C16.2188 25.3487 16.2349 25.3721 16.2555 25.4014C16.2968 25.4598 16.3563 25.5418 16.4321 25.6397C16.5831 25.8347 16.8013 26.0968 17.0697 26.3629C17.5838 26.8726 18.3775 27.4936 19.2962 27.5384L19.3449 26.5396C18.8185 26.5139 18.2553 26.1302 17.7737 25.6528C17.5443 25.4253 17.355 25.1983 17.2229 25.0276C17.1572 24.9426 17.1063 24.8726 17.0725 24.8247C17.0556 24.8008 17.0431 24.7825 17.035 24.7707C17.031 24.7648 17.0282 24.7605 17.0265 24.758C17.0257 24.7567 17.0251 24.7559 17.0249 24.7555C17.0248 24.7553 17.0247 24.7553 17.0247 24.7553C17.0248 24.7553 17.0248 24.7554 17.0248 24.7555C17.0249 24.7555 17.0249 24.7556 17.0249 24.7556C17.025 24.7557 17.0251 24.7558 16.6067 25.0296ZM14.6969 21.7511C14.6969 22.5739 15.1061 23.4897 15.4626 24.1449C15.6473 24.4844 15.8314 24.7778 15.9693 24.9864C16.0384 25.0909 16.0962 25.1747 16.1373 25.233C16.1578 25.2622 16.1742 25.285 16.1857 25.3009C16.1914 25.3088 16.196 25.315 16.1992 25.3194C16.2008 25.3216 16.2021 25.3234 16.203 25.3247C16.2035 25.3253 16.2039 25.3258 16.2042 25.3263C16.2044 25.3265 16.2045 25.3266 16.2046 25.3268C16.2047 25.3269 16.2047 25.327 16.2048 25.327C16.2048 25.3271 16.2049 25.3272 16.6067 25.0296C17.0085 24.732 17.0085 24.7321 17.0086 24.7321C17.0086 24.7321 17.0086 24.7322 17.0086 24.7322C17.0086 24.7322 17.0087 24.7322 17.0086 24.7322C17.0086 24.7322 17.0085 24.732 17.0083 24.7317C17.0079 24.7312 17.0071 24.7302 17.0061 24.7287C17.004 24.7259 17.0006 24.7212 16.996 24.7149C16.9868 24.7022 16.9729 24.6828 16.9549 24.6572C16.9189 24.606 16.8666 24.5304 16.8035 24.4349C16.677 24.2436 16.5087 23.9752 16.341 23.6669C15.9926 23.0266 15.6969 22.3031 15.6969 21.7511H14.6969ZM16.0428 20.623C15.8191 20.1758 15.819 20.1759 15.8188 20.176C15.8188 20.176 15.8186 20.1761 15.8185 20.1762C15.8183 20.1763 15.818 20.1764 15.8178 20.1765C15.8173 20.1768 15.8167 20.177 15.8161 20.1773C15.8149 20.1779 15.8135 20.1787 15.8119 20.1795C15.8087 20.1811 15.8046 20.1832 15.7998 20.1858C15.7902 20.1909 15.7776 20.1977 15.7622 20.2063C15.7316 20.2234 15.6902 20.2476 15.6414 20.2788C15.5447 20.3406 15.4144 20.4327 15.2819 20.5541C15.0299 20.7852 14.6969 21.1914 14.6969 21.7511H15.6969C15.6969 21.6058 15.7868 21.448 15.9577 21.2912C16.0367 21.2188 16.1178 21.1611 16.1798 21.1215C16.2103 21.102 16.2349 21.0877 16.2506 21.0789C16.2584 21.0745 16.2639 21.0716 16.2667 21.0701C16.2681 21.0694 16.2688 21.069 16.2687 21.069C16.2687 21.0691 16.2685 21.0692 16.2681 21.0694C16.268 21.0694 16.2677 21.0696 16.2674 21.0697C16.2673 21.0698 16.2671 21.0699 16.267 21.07C16.2669 21.07 16.2667 21.0701 16.2667 21.0701C16.2665 21.0702 16.2664 21.0702 16.0428 20.623ZM18.908 18.5309C18.8155 18.6177 18.5935 18.7658 18.2631 18.9544C17.9473 19.1347 17.5731 19.3295 17.2113 19.5104C16.8503 19.691 16.5061 19.8555 16.2519 19.975C16.1249 20.0347 16.0206 20.083 15.9482 20.1164C15.912 20.133 15.8839 20.146 15.8648 20.1547C15.8553 20.159 15.8481 20.1623 15.8433 20.1645C15.8409 20.1656 15.8391 20.1664 15.8379 20.1669C15.8373 20.1672 15.8369 20.1674 15.8366 20.1675C15.8365 20.1676 15.8364 20.1676 15.8363 20.1676C15.8363 20.1677 15.8363 20.1677 15.8363 20.1677C15.8363 20.1677 15.8363 20.1677 16.0428 20.623C16.2492 21.0784 16.2493 21.0784 16.2493 21.0784C16.2493 21.0784 16.2494 21.0783 16.2494 21.0783C16.2495 21.0783 16.2497 21.0782 16.2499 21.0781C16.2502 21.078 16.2508 21.0777 16.2515 21.0774C16.2528 21.0768 16.2549 21.0759 16.2575 21.0747C16.2627 21.0723 16.2704 21.0688 16.2804 21.0642C16.3003 21.0551 16.3295 21.0418 16.3667 21.0246C16.441 20.9904 16.5477 20.9409 16.6773 20.88C16.9363 20.7582 17.2882 20.5901 17.6586 20.4048C18.028 20.2201 18.4204 20.0161 18.7589 19.8229C19.0827 19.638 19.4026 19.438 19.592 19.2604L18.908 18.5309ZM19.3844 17.6266C19.3844 17.7645 19.371 17.8761 19.3186 17.9993C19.2644 18.1268 19.1534 18.3009 18.908 18.5309L19.592 19.2604C19.9106 18.9617 20.1168 18.6774 20.2388 18.3908C20.3626 18.0998 20.3844 17.8412 20.3844 17.6266H19.3844ZM19.3853 17.5472C19.3849 17.5724 19.3844 17.6006 19.3844 17.6266H20.3844C20.3844 17.6102 20.3847 17.5905 20.3852 17.5631L19.3853 17.5472ZM18.6156 16.646C18.8751 16.646 19.0282 16.6959 19.1175 16.7454C19.2028 16.7927 19.2559 16.8539 19.294 16.927C19.384 17.0997 19.3888 17.3269 19.3853 17.5472L20.3852 17.5631C20.3882 17.3709 20.4042 16.8935 20.1808 16.4648C20.0622 16.2372 19.8774 16.0234 19.6025 15.8709C19.3316 15.7206 19.0022 15.646 18.6156 15.646V16.646ZM15.1969 18.6136C15.6148 18.8882 15.6147 18.8883 15.6146 18.8884C15.6146 18.8884 15.6146 18.8885 15.6146 18.8885C15.6145 18.8886 15.6145 18.8886 15.6145 18.8886C15.6145 18.8886 15.6146 18.8884 15.6148 18.8881C15.6152 18.8875 15.616 18.8863 15.6172 18.8845C15.6196 18.881 15.6234 18.8753 15.6287 18.8674C15.6394 18.8518 15.6559 18.8279 15.6779 18.7968C15.722 18.7347 15.7879 18.6443 15.8728 18.5352C16.0433 18.3162 16.2873 18.0257 16.582 17.7371C17.1971 17.1347 17.927 16.646 18.6156 16.646V15.646C17.5068 15.646 16.5273 16.391 15.8824 17.0226C15.5471 17.3509 15.2734 17.6773 15.0837 17.9209C14.9886 18.0432 14.9138 18.1456 14.8622 18.2184C14.8364 18.2548 14.8163 18.2839 14.8023 18.3044C14.7953 18.3147 14.7899 18.3228 14.786 18.3286C14.784 18.3315 14.7825 18.3339 14.7813 18.3356C14.7807 18.3365 14.7802 18.3372 14.7799 18.3378C14.7797 18.3381 14.7795 18.3384 14.7794 18.3386C14.7793 18.3387 14.7792 18.3388 14.7792 18.3389C14.7791 18.339 14.779 18.3391 15.1969 18.6136ZM11.497 26.7085C13.2946 22.5474 14.1667 20.9924 15.6088 18.8971L14.785 18.3302C13.2947 20.4956 12.393 22.1128 10.579 26.3119L11.497 26.7085ZM8.8743 26.1619L10.848 26.9727L11.228 26.0477L9.25429 25.2369L8.8743 26.1619ZM12.5762 12.8399C11.3473 16.2703 10.3488 19.4521 9.65759 21.776C9.31192 22.9382 9.04294 23.8864 8.86026 24.5444C8.76892 24.8735 8.69914 25.13 8.65213 25.3045C8.62863 25.3918 8.61082 25.4586 8.59885 25.5037C8.59286 25.5262 8.58834 25.5434 8.58529 25.5549C8.58377 25.5607 8.58261 25.5651 8.58183 25.568C8.58144 25.5695 8.58114 25.5707 8.58094 25.5714C8.58084 25.5718 8.58076 25.5721 8.5807 25.5723C8.58068 25.5724 8.58065 25.5725 8.58064 25.5726C8.58062 25.5727 8.58061 25.5727 9.06429 25.6994C9.54798 25.8261 9.54798 25.8261 9.54799 25.826C9.548 25.826 9.54801 25.826 9.54803 25.8259C9.54806 25.8257 9.54813 25.8255 9.54821 25.8252C9.54838 25.8245 9.54864 25.8235 9.549 25.8222C9.54971 25.8195 9.55079 25.8154 9.55224 25.8099C9.55514 25.7989 9.55952 25.7823 9.56536 25.7603C9.57704 25.7163 9.59454 25.6507 9.61773 25.5646C9.66411 25.3924 9.7332 25.1383 9.82382 24.8119C10.0051 24.159 10.2724 23.2168 10.6161 22.0611C11.3037 19.7494 12.2965 16.5857 13.5177 13.1771L12.5762 12.8399ZM14.1266 8.79138C13.6114 10.0584 13.0849 11.4201 12.5762 12.8399L13.5177 13.1771C14.0209 11.7724 14.5423 10.4238 15.0529 9.16806L14.1266 8.79138Z" fill="#18191A" mask="url(#path-1-outside-1_312_117)"/>
</svg>
