<svg width="40" height="52" viewBox="0 0 40 52" fill="none" xmlns="http://www.w3.org/2000/svg">
<path fill-rule="evenodd" clip-rule="evenodd" d="M24.0227 0L26.5963 1.00798C26.5963 1.00798 23.8535 6.50434 21.3143 12.2159H40V51.835H0V12.2159H18.3384C21.3874 4.99842 24.0227 0 24.0227 0ZM17.605 13.9768H1.77778V50.0741H38.2222V13.9768H20.5417C19.8437 15.59 19.1863 17.177 18.6362 18.6181C15.9429 25.674 14.0277 33.0263 14.0277 33.0263C14.0277 33.0263 16.6162 28.52 20.0726 25.1996C23.8432 21.7013 26.716 21.7013 27.3145 21.7013C27.913 21.7013 29.5888 21.7013 30.5464 23.0651C31.504 24.4288 31.2048 26.6819 31.1449 26.9784C31.1403 27.0013 31.1353 27.0322 31.1292 27.0706C31.0553 27.531 30.8086 29.0676 28.9305 30.6546C26.8955 32.3741 22.8257 34.2715 22.8257 34.2715C23.0157 35.8947 23.8432 37.5919 24.1424 38.0662C24.4417 38.5406 25.6985 40.0822 27.3145 39.9636C28.9305 39.845 30.9654 37.7698 30.9654 37.7698L32.2222 38.7185C31.428 40.4488 30.863 41.3042 29.6487 42.6318C29.6487 42.6318 27.7334 44.3513 25.6387 44.3513C23.1848 44.2327 21.0302 40.9716 21.0302 40.9716C21.0302 40.9716 18.6362 37.7698 18.6362 35.4573C18.6362 34.2715 20.0726 33.56 20.0726 33.56C20.0726 33.56 24.5614 31.544 25.519 30.6546C26.4766 29.7652 26.5963 29.113 26.5963 28.52C26.5963 28.4844 26.5969 28.4441 26.5976 28.3998C26.6088 27.7061 26.6357 26.0297 24.4417 26.0297C21.3893 26.0297 18.6362 30.1803 18.6362 30.1803C16.1464 33.7634 14.6403 36.4312 11.5738 43.4619L8.22222 42.0982C8.22222 42.0982 10.8247 32.2555 14.9853 20.7526C15.8444 18.3774 16.7341 16.0982 17.605 13.9768Z" fill="#E7E6E5"/>
</svg>
