<svg width="80" height="30" viewBox="0 0 80 30" fill="none" xmlns="http://www.w3.org/2000/svg">
<path fill-rule="evenodd" clip-rule="evenodd" d="M6.22223 5.8909H12.2223V0H6.22223V5.8909Z" fill="#E7E6E5"/>
<path fill-rule="evenodd" clip-rule="evenodd" d="M0 0H6V5.8909L0 0Z" fill="#E7E6E5"/>
<path fill-rule="evenodd" clip-rule="evenodd" d="M12.4444 5.8909H18.4444V0H12.4444V5.8909Z" fill="#E7E6E5"/>
<path fill-rule="evenodd" clip-rule="evenodd" d="M18.6111 5.8909H24.6111V0H18.6111V5.8909Z" fill="#E7E6E5"/>
<path fill-rule="evenodd" clip-rule="evenodd" d="M24.7777 0L30.7777 5.8909H24.7777V0Z" fill="#E7E6E5"/>
<path fill-rule="evenodd" clip-rule="evenodd" d="M24.7777 11.9997H30.7777V6.0542H24.7777V11.9997Z" fill="#E7E6E5"/>
<path fill-rule="evenodd" clip-rule="evenodd" d="M18.7777 18.0549H24.7777V12.1094H18.7777V18.0549Z" fill="#E7E6E5"/>
<path fill-rule="evenodd" clip-rule="evenodd" d="M24.7777 24.0001H30.7777V18.0547H24.7777V24.0001Z" fill="#E7E6E5"/>
<path fill-rule="evenodd" clip-rule="evenodd" d="M30.7777 24H36.7777V29.891H30.7777V24Z" fill="#E7E6E5"/>
<path fill-rule="evenodd" clip-rule="evenodd" d="M6.22223 29.9998H12.2223V24.1089H6.22223V29.9998Z" fill="#E7E6E5"/>
<path fill-rule="evenodd" clip-rule="evenodd" d="M0.111084 24.1089H6.11109V29.9998L0.111084 24.1089Z" fill="#E7E6E5"/>
<path fill-rule="evenodd" clip-rule="evenodd" d="M12.2223 24.109H18.2223V18.1636H12.2223V24.109Z" fill="#E7E6E5"/>
<path fill-rule="evenodd" clip-rule="evenodd" d="M0.111084 23.9454H6.11109V18H0.111084V23.9454Z" fill="#E7E6E5"/>
<path fill-rule="evenodd" clip-rule="evenodd" d="M0.111084 17.891H6.11109V12H0.111084V17.891Z" fill="#E7E6E5"/>
<path d="M44.8334 5.01807H48.2222C49.1667 5.01807 49.8889 5.2908 50.3889 5.7817C50.7777 6.16352 51 6.76352 51 7.47261C51 8.61807 50.3333 9.3817 49.4444 9.70898L51.2222 12.3272H49.3333L47.7222 9.9817H46.4444V12.3272H44.8334V5.01807ZM48.1111 8.56352C48.8889 8.56352 49.3333 8.12716 49.3333 7.52716C49.3333 6.81807 48.8334 6.49079 48.0555 6.49079H46.4444V8.56352H48.1111Z" fill="#E7E6E5"/>
<path d="M52.4444 5.01807H58V6.43625H54.0555V7.90898H57.5556V9.32716H54.0555V10.8544H58.0555V12.2726H52.4444V5.01807Z" fill="#E7E6E5"/>
<path d="M59.1666 8.67233C59.1666 6.59961 60.7222 4.90869 63 4.90869C64.3889 4.90869 65.1667 5.45415 65.8334 6.10869L64.8889 7.19961C64.3334 6.70869 63.8334 6.38143 63 6.38143C61.7778 6.38143 60.8889 7.41779 60.8889 8.67233C60.8889 9.92687 61.7778 10.9632 63 10.9632C63.8334 10.9632 64.3334 10.636 64.9445 10.0905L66 11.1814C65.2223 11.9995 64.3889 12.4359 63 12.4359C60.7778 12.4359 59.1666 10.7451 59.1666 8.67233Z" fill="#E7E6E5"/>
<path d="M67.2778 5.01807H68.8889V7.90898H71.8889V5.01807H73.5V12.2726H71.8889V9.38171H68.8889V12.2726H67.2778V5.01807Z" fill="#E7E6E5"/>
<path d="M75.3889 5.01807H77V12.2726H75.3889V5.01807Z" fill="#E7E6E5"/>
<path d="M44.8334 17.4546H46.5556L48.5 20.5092L50.4445 17.4546H52.2222V24.7092H50.6111V19.9637L48.5556 23.0728H48.5L46.4444 20.0183V24.7092H44.8334V17.4546Z" fill="#E7E6E5"/>
<path d="M54 17.4546H59.5556V18.8728H55.6111V20.3456H59.1111V21.8183H55.6111V23.3456H59.6111V24.7637H54V17.4546Z" fill="#E7E6E5"/>
<path d="M61.0555 17.4546H63.9445C66.2778 17.4546 67.8889 19.0365 67.8889 21.1092C67.8889 23.1274 66.2778 24.7637 63.9445 24.7637H61.0555V17.4546ZM63.8889 23.291C65.2223 23.291 66.1111 22.4183 66.1111 21.1092C66.1111 19.8001 65.2223 18.9274 63.8889 18.9274H62.6111V23.291H63.8889Z" fill="#E7E6E5"/>
<path d="M69.3333 17.4546H70.9445V24.7092H69.3333V17.4546Z" fill="#E7E6E5"/>
<path d="M75.3334 17.3999H76.8333L80 24.7089H78.2778L77.6112 23.0726H74.5L73.8333 24.7089H72.1666L75.3334 17.3999ZM77.0556 21.7089L76.0556 19.3635L75.0556 21.7089H77.0556Z" fill="#E7E6E5"/>
</svg>
